<?xml version="1.0" encoding="utf-8"?>
<!-- Generator: Adobe Illustrator 27.8.1, SVG Export Plug-In . SVG Version: 6.00 Build 0)  -->
<svg version="1.1" id="Layer_1" xmlns="http://www.w3.org/2000/svg" xmlns:xlink="http://www.w3.org/1999/xlink" x="0px" y="0px"
	 viewBox="0 0 658 164" style="enable-background:new 0 0 658 164;" xml:space="preserve">
<style type="text/css">
	.st0{fill:#7C9FD0;}
</style>
<path class="st0" d="M407.82,3.64c4.42,0,9.16,0.52,14.22,1.58c17.06,3.58,30.82,10.63,41.25,21.15
	c7.58,7.79,11.38,16.05,11.38,24.78c0,4.53-1.43,8.74-4.29,12.63c-4.77,6.31-11.77,11.21-21,14.68c-8.06,3.16-16.49,4.73-25.29,4.73
	c-2.13,0-4.72-0.21-7.8-0.63c-0.11,1.26-0.16,2.68-0.16,4.25v5.05c0,5.57,0.34,12.99,1.02,22.24c-0.11,2-0.91,3.84-2.39,5.53
	c-1.48,1.68-3.23,2.79-5.25,3.31c-0.85,0-2.07-1.06-3.66-3.18c-1.17-6.11-1.7-11.05-1.59-14.84l0.4-21.47v-3.47
	c-5.17-1.59-9.8-4.06-13.91-7.42c-5.16-4.11-7.74-8.11-7.74-12c0-7.89,5.27-13.26,15.81-16.11c3.06-0.84,4.79-1.27,5.22-1.27
	c0.21-5.05,0.37-8.84,0.47-11.37c0.63-5.16,2.32-9.1,5.06-11.84c1.06,0.74,2.11,2.26,3.16,4.58c1.06,2.32,1.64,4.21,1.75,5.69
	l1.11,13.12c3.48,0,6.37,0.26,8.7,0.79c6,1.58,9.01,4.63,9.01,9.17c0,3.37-1.59,5.21-4.77,5.53c0.21-0.74,0.32-1.48,0.32-2.22
	c0-2.95-4.24-4.42-12.72-4.42v19.44c2.43,0.43,4.95,0.63,7.58,0.63c7.48,0,15.17-1.53,23.08-4.58c9.79-3.79,14.69-9.06,14.69-15.8
	c0-8.54-4.32-16.01-12.95-22.44c-6.53-4.95-14.74-8.85-24.63-11.7c-8.84-2.53-16.16-3.79-21.95-3.79c-5.47,0-12.16,0.26-20.05,0.79
	l-0.32-1.72C387.91,6.78,396.65,3.64,407.82,3.64z M396.82,52.7c-5.07,1.16-7.6,3.11-7.6,5.85c0,4.32,5.02,7.64,15.05,9.96V52.23
	C400.68,52.23,398.19,52.39,396.82,52.7z"/>
<path class="st0" d="M485.16,56.41h0.95c2.42,0,3.95,1.64,4.58,4.91c0.21,0.63,0.52,1.53,0.95,2.69c1.06,3.16,2,6.7,2.85,10.6
	c0.42,2.43,1,6.01,1.74,10.76c1.26,8.44,1.9,16.56,1.9,24.37c0,4.43-0.16,7.39-0.47,8.86c-0.53,0.32-1.11,0.47-1.74,0.47
	c-2.74,0-5.11-2.47-7.11-7.42l-0.63-9.17h-5.06c-0.95,0-2.43-0.05-4.43-0.16c-1.9,0-3.32,0-4.27,0c-0.42,0-0.74,0.05-0.95,0.16
	c-0.95,0.32-2.05,2.26-3.32,5.82c-0.84,2.31-1.64,4.62-2.37,6.93l-1.74,4.56c-0.84,0.83-2.11,1.26-3.8,1.26
	c-0.21,0-1.26-0.16-3.16-0.47c-2-2-3-4.57-3-7.72c0-3.79,1.47-8.3,4.43-13.56c0-3.36-1.58-5.25-4.74-5.67l0.31-3
	c0.42,0.11,1.16,0.15,2.22,0.15h5.22c0.63-1.37,1.42-3.06,2.37-5.07c3.37-6.97,6.53-12.72,9.48-17.27l7.59-9.34l0.48-1.9
	C483.74,56.68,484.32,56.41,485.16,56.41z M479.94,90.16h4.43c0.84,0,1.63-0.05,2.37-0.16c0-6.42-0.74-10.95-2.22-13.59
	c-0.53,0.21-1.11,0.84-1.74,1.89c-2.42,5.06-4.11,8.96-5.06,11.7C478.47,90.11,479.2,90.16,479.94,90.16z"/>
<path class="st0" d="M509.89,117.5c-2.1,0-3.88-0.73-5.36-2.21c-1.47-1.47-2.21-3.27-2.21-5.38c0-3.37,0.1-6.47,0.32-9.32
	c0.52-6.42,2.37-14.8,5.53-25.12c0.74-2.32,2.9-3.48,6.48-3.48c2.74,0,4.11,0.9,4.11,2.69c-1.28,5.38-2.29,11.85-3.03,19.44
	c-0.63,6.54-1.22,13.07-1.75,19.6C513.78,116.23,512.41,117.5,509.89,117.5z M506.45,68.38c0-1.57,1.84-3.29,5.53-5.17
	c3.16-1.56,6.05-2.35,8.69-2.35c20.01,0,30.03,7.88,30.03,23.63c0,5.05-2.32,9.3-6.96,12.76c1.79,2,3.63,4.62,5.53,7.88
	c1.58,2.73,3.15,5.51,4.74,8.35c0.42,0.73,0.63,1.62,0.63,2.67c0,1.36-0.47,2.62-1.43,3.78c-0.95,1.16-2.06,1.73-3.33,1.73
	c-0.64,0-1.16-0.21-1.59-0.63c-0.1-0.1-0.64-0.78-1.58-2.04l-3.33-4.88c-2.44-3.25-5.5-7.24-9.2-11.96
	c-3.17,0.85-6.13,1.27-8.88,1.27c-2.43,0-4.46-0.73-6.1-2.21c-1.64-1.47-2.46-3.42-2.46-5.85c0-1.58,1.11-3,3.34-4.27
	c1.91-1.05,3.76-1.58,5.56-1.58c3.7,0,7.1,0.69,10.17,2.05c2.33-2.73,3.49-5.26,3.49-7.59c0-3.05-0.73-5.53-2.21-7.43
	c-3.9-4.53-10.22-6.79-18.96-6.79c-1.16,0-2.64,0.32-4.43,0.95s-3.16,1-4.11,1.11C507.5,70.78,506.45,69.63,506.45,68.38z M530,97
	c-1.27-1.49-2.17-2.22-2.69-2.22c-3.16,0-4.74,0.58-4.74,1.74c0,1.8,0.68,2.71,2.06,2.71C526.09,99.22,527.88,98.48,530,97z"/>
<path class="st0" d="M560.02,62.39c0.84-0.73,1.74-1.1,2.68-1.1c4.21,0,6.33,6.1,6.33,18.29v2.36c0,0.73-0.05,1.52-0.16,2.36
	c2.63-0.84,4.95-1.73,6.96-2.68c3.48-1.58,6.84-4.25,10.11-8.03c1.26-1.37,3.89-4.83,7.9-10.4h-0.16c0.1-0.46,0.58-0.69,1.42-0.69
	c0.84,0,1.9,0.71,3.16,2.13c1.27,1.43,1.9,2.51,1.9,3.24v0.32c-1.16,3.06-2.38,5.64-3.64,7.75c-3.06,4.75-8.91,10.12-17.55,16.14
	c1.37,2.22,3.32,4.49,5.85,6.8c4.1,3.9,8.96,6.23,14.54,6.96c1.58,0.84,2.37,2.53,2.37,5.06c0,0.84-0.11,1.79-0.32,2.85
	c-1.69,1.69-3.05,2.85-4.11,3.48c-5.79-0.63-11.17-2.69-16.12-6.18c-3.59-2.64-7.69-6.81-12.33-12.52l0.79,16.66
	c-1.79,1.37-3.9,2.05-6.32,2.05c-1.8,0-3.32-0.21-4.58-0.63c-0.53-1.89-0.79-4.2-0.79-6.94v-1.89c0-0.73,0.05-1.41,0.16-2.05
	c-0.42-7.35-0.68-15.29-0.79-23.8l-0.3-17.02L560.02,62.39z"/>
<path class="st0" d="M609.27,77.82c0,0.21,0.1,0.32,0.32,0.32c4.64,1.78,10.06,2.88,16.28,3.29l8.69,0.63
	c12.01,1.06,18.01,6.13,18.01,15.21c0,4.33-1,7.66-3,9.99c-4.63,5.38-11.64,8.08-21.02,8.08c-6.54,0-12.38-1.66-17.54-4.99
	s-7.74-6.67-7.74-10.05c0-6.54,4.79-9.82,14.38-9.82c7.27,0,14.06,1.64,20.39,4.9c0.21,0.21,0.32,0.42,0.32,0.64
	c0,0.42-0.11,0.74-0.32,0.95c-2.11,2.11-5.11,3.16-9,3.16c-1.9,0-4.69-0.63-8.38-1.89c-3.69-1.27-6.58-1.9-8.69-1.9
	c-3.27,0-4.9,1.31-4.9,3.95c0,2.63,4.27,3.95,12.8,3.95c3.49,0,8.01-0.69,13.59-2.06c7.48-1.69,11.22-3.8,11.22-6.33
	c0-2.64-3.37-4.74-10.12-6.33c-4.85-1.05-9.33-1.63-13.44-1.75c-4.11-0.11-7.69-0.31-10.74-0.63c-3.37-0.42-5.69-1.05-6.95-1.9
	c-1.79-1.26-2.68-3.42-2.68-6.48c0-6.44,5.05-10.97,15.17-13.61c6.32-1.58,11.75-2.37,16.27-2.37c5.8,0,12.54,0.9,20.23,2.71
	c1.15,0.31,1.74,1.11,1.74,2.38c-0.11,0.95-0.48,1.69-1.11,2.22c-1.05,0.85-2.24,1.4-3.56,1.67c-1.32,0.26-2.63,0.5-3.95,0.71
	s-3.29,0.37-5.93,0.48c-10.64,0.74-17.65,1.36-21.02,1.88c-4.74,0.74-7.75,1.52-9.01,2.36C609.38,77.39,609.27,77.61,609.27,77.82z"
	/>
<path class="st0" d="M167.21,64.53c-2.08-0.19-2.79,2.96-3.19,4.49c-1.69,11.2-2.38,23.71-2.06,35.85
	c0.12,4.53-0.56,10.64,5.06,11.76c2.25,0.56,6.42,0,6.75-1.49c1.12-14.2-0.38-30.06-1.5-44.63
	C172.15,69.02,170.21,65.28,167.21,64.53z"/>
<path class="st0" d="M320.13,63.98c-7.46-1.04-23.24,2.05-34.29,3.74c-1.5,0.18-1.12,1.49-0.75,2.61c0.94,4.48,5.81,3.74,9,5.42
	c-1.31,2.99-2.06,6.16-3.94,8.97c-1.69,0.56-4.5,0.18-4.68,2.8c-0.16,1.59,1.12,2.63,1,4.73c-1.75,4.44-4.78,9.11-3.62,14.88
	c1.41,5.09,3.87,10.57,7.5,11.39c11.62,2.24,21.18-4.29,29.99-10.83c1.52-1.54-1.41-6.21-2.44-6.35
	c-7.87-0.94-15.18,2.43-23.05,2.24c0.75-3.73,1.71-6.93,3.59-10.11c6.42-0.94,15.97,0.41,19.84-2.59c1.12-1.31,0.66-5.39-0.38-5.98
	c-4.87-1.68-11.27-1.05-16.16-0.77c0.79-2.5,1.62-5.3,2.48-7.82c4.12,0.37,8.23,0.12,11.99-0.18c4-0.33,8.81,0.37,11.62-2.81
	c0.82-1.61-2.34-5.92-4.12-7.28C321.91,64.67,321.14,64.11,320.13,63.98z"/>
<path class="st0" d="M225.87,64.72c-15.86-2.68-33.73-1.87-45.17,9.15c-1.99,2.14-1.87,6.16-1.69,8.96c0.51,1.82,2.62,3.73,4.5,4.29
	c12.55,2.8,28.67-0.56,39.35,7.84c1.31,1.69,0.12,3.46-1.5,4.3c-9.93,4.11-20.45,7.03-32.07,4.6c-1.57-0.42-3.91-2.05-3.16-3.66
	c4.68-7.1,12.56-0.19,18.36,0.74c2.91,0.63,9.37-0.19,12.56-3.54c1.01-1.9-2.51-3.06-4.87-3.74c-8.25-2.24-19.87-4.85-27.55,0.37
	c-2.18,1.47-3.94,5.97-2.44,9.52c6.37,10.27,18.59,13.73,29.98,11.95c7.76-1.21,17.05-3.92,18.93-12.7
	c0.89-5.56,0.56-11.58-4.12-15.5c-10.87-7.28-26.42-3.37-38.42-8.22c-0.38-0.56-0.14-0.75,0.56-1.12
	c12.74-3.92,27.74-2.43,40.85-5.6c1.9-0.56,3.65-3.6,2.81-5.04C230.93,65.47,228.49,65.17,225.87,64.72z"/>
<path class="st0" d="M262.97,55.76c-2.04-0.28-1.8,2.53-1.31,4.11c2.44,10.27,6.19,20.17,7.12,31c0.19,2.24,0.94,5.23-0.56,7.09
	c-8.06-9.9-12.74-21.66-22.49-30.25c-1.55-1.26-3.42,0.02-4.31,1.68c-4.5,9.15-6.23,19.23-6.94,29.88
	c-0.37,5.7-1.49,13.26,4.5,16.25c1.69,0.56,4.03,0.3,4.68-1.31c2.62-8.59,2.27-18.58,2.62-28.2c0-0.88,0.58-2.64,1.12-1.87
	c4.03,7.75,8.12,14.66,12.56,21.85c2.25,3.64,4.24,7.14,8.44,6.91c4.12-0.56,7.49-3.73,9.37-7.09c4.68-13.44,1.69-29.13-5.06-40.33
	C270.28,61.73,267.47,56.88,262.97,55.76z"/>
<path class="st0" d="M131.37,41.82c-1.95-1.68-8.86-7.31-12.51-9.59C88.44,13.18,49.15-0.26,10.91,10.76
	c-4.87,1.68-7.12,6.72-7.87,11.2c2.44,2.99,6.18,2.43,10.12,2.43c0.93-0.56,2.62-0.56,2.81-1.87c-1.31-2.8-5.06-1.87-7.12-3.36
	c1.12-1.12,2.81-0.74,4.12-1.49c37.11-5.42,73.64,6.02,102.7,26.89c15.36,11.04,29.99,27.45,24.92,47.24
	c-6.63,19.12-32.6,22.06-52.85,21.85c-4.49-0.05-8.36-0.75-12.36-2.24c0.14-11.93-0.1-26.76-0.31-34.36
	c8.34-0.49,24.48,2.06,35.16,6.73c2.06,1.35-3.94,5.41-6.18,7.47c-1.24,1.47,3.33,2.87,6.38,2.61c4.68-0.74,8.62-4.48,10.49-8.77
	c1.32-4.11-0.66-7.31-3.18-10.09c-11.43-9.71-27.15-9.66-42.52-10.04c-0.16-5.4-0.28-13.45-1.31-18.28s-3.39-6.98-6.95-7.73
	c-2.81,3.17-3.26,7.3-3.75,11.58c-0.6,5.23-1.15,10.9-1.69,15.69c0,0-8.36,1.63-13.31,2.8c-4.94,1.16-24.34,7.35-22.68,17.18
	c2.2,8.73,16.12,19.23,25.67,25.39c3.12,2,6.28,3.75,9.74,5.41c0.4,4.53,1.13,8.96,4.12,12.51c0.96,0.89,4.36,0.54,6.93,0
	c3.19-1.3,3.28-4.71,3.56-7.28c3.35,0.59,7.33,1.52,13.14,2.24c23.24,2.9,51.7-3.73,64.44-26.89
	C163.84,75.37,145.28,53.82,131.37,41.82z M60.57,106.92c-11.29-3.36-23.24-9.71-31.11-20.17c-1.85-2.92,5.06-4.67,8.43-5.6
	c7.45-2.06,15.37-2.98,23.43-3.36C60.65,88.15,60.51,99.66,60.57,106.92z"/>
<path class="st0" d="M204.86,26.52c-1.69-3.36-5.25-5.41-8.81-5.41c-3.56-4.67-9.18-6.16-14.8-5.42
	c-11.43,2.05-23.99,8.96-27.74,20.73c-0.94,4.67,0.19,8.96,3.56,12.14c-0.37,2.9-0.74,6.91,2.44,8.97c3.56,1.87,4.33-2.34,6.18-3.93
	c10.5,4.11,20.61-0.74,28.49-6.9C200.36,41.45,207.85,35.11,204.86,26.52z M161.19,40.71c-1.88-3.36,1.12-6.72,3.37-9.52
	c2.56-2.5,6.18-4.86,9.93-4.67C169.23,30.44,164.77,35.34,161.19,40.71z M191.08,40.66c-6.18,3.36-13,5.95-20.88,5.02
	c1.01-2.87,3-5.19,6.07-8.17c5.48-5.33,12.92-11.96,19.96-9.69c0.87,0.28,1.34,0.63,1.88,2.06
	C199.35,33.15,195.11,38.26,191.08,40.66z"/>
<path class="st0" d="M371.1,67.89c-1.94-1.21-3.94-0.63-5.81,0.19c-11.62,6.72-25.65,22.29-28.86,29.1
	c-0.54-13.24,10.68-21.64,11.61-33.78c0.03-3.04-4.07,0.23-5.43,2.05c-9.74,11.58-20.05,26.89-11.99,42.01
	c-5.25,13.82-9.75,28.01-10.68,43.51c0.19,3.92,3.37,7.29,6.75,9.34c1.12,0.56,3.82,2.05,4.12,0.75
	c2.63-14.94,6.37-29.31,11.62-43.33c4.94,0.63,7.99,0.52,14.61-2.42c11.25-5.42,21.93-17.18,22.49-30.07
	C379.7,78.35,377.1,71.82,371.1,67.89z M371.86,86.01c-1.32,8.78-12.17,16.21-17.62,17.74c-1.83,0.51-2.65,0.51-4.69,0.56
	c3.09-7.16,11.43-19.42,20.24-27.08C371.27,75.79,372.23,83.02,371.86,86.01z"/>
</svg>
